<?xml version="1.0" encoding="UTF-8" standalone="no"?>
<!-- Created with Inkscape (http://www.inkscape.org/) -->

<svg
   xmlns:dc="http://purl.org/dc/elements/1.1/"
   xmlns:cc="http://creativecommons.org/ns#"
   xmlns:rdf="http://www.w3.org/1999/02/22-rdf-syntax-ns#"
   xmlns:svg="http://www.w3.org/2000/svg"
   xmlns="http://www.w3.org/2000/svg"
   xmlns:sodipodi="http://sodipodi.sourceforge.net/DTD/sodipodi-0.dtd"
   xmlns:inkscape="http://www.inkscape.org/namespaces/inkscape"
   width="297mm"
   height="210mm"
   viewBox="0 0 1052.3622 744.09448"
   id="svg2"
   version="1.1"
   inkscape:version="0.91 r13725"
   sodipodi:docname="Fatrix.svg"
   inkscape:export-filename="/Volumes/ExtraDiskSpace/Documents/FAT/Images/Fatrix.png"
   inkscape:export-xdpi="90"
   inkscape:export-ydpi="90">
  <defs
     id="defs4" />
  <sodipodi:namedview
     id="base"
     pagecolor="#ffffff"
     bordercolor="#666666"
     borderopacity="1.0"
     inkscape:pageopacity="0.0"
     inkscape:pageshadow="2"
     inkscape:zoom="0.49497475"
     inkscape:cx="141.47399"
     inkscape:cy="358.37559"
     inkscape:document-units="px"
     inkscape:current-layer="layer1"
     showgrid="false"
     inkscape:window-width="1356"
     inkscape:window-height="723"
     inkscape:window-x="7"
     inkscape:window-y="23"
     inkscape:window-maximized="0" />
  <metadata
     id="metadata7">
    <rdf:RDF>
      <cc:Work
         rdf:about="">
        <dc:format>image/svg+xml</dc:format>
        <dc:type
           rdf:resource="http://purl.org/dc/dcmitype/StillImage" />
        <dc:title />
      </cc:Work>
    </rdf:RDF>
  </metadata>
  <g
     inkscape:label="Layer 1"
     inkscape:groupmode="layer"
     id="layer1"
     transform="translate(0,-308.26772)">
    <path
       style="opacity:1;fill:#000000;fill-opacity:1;stroke:none;stroke-width:10;stroke-miterlimit:4;stroke-dasharray:none;stroke-opacity:1"
       id="path3361"
       d="m 95.949358,396.60987 c -5.962221,0.93346 -12.113908,0.96847 -17.945889,3.01363 -0.919154,0.32233 -1.795194,0.82279 -2.692796,1.23417 -6.726529,5.40988 3.909884,-3.21382 9.013411,-6.12991 0.511926,-0.29251 -0.624339,1.21833 -0.808996,1.90093 -0.804463,2.97372 -0.384083,6.4785 -0.254495,9.52172 0.83593,10.08383 2.110763,20.10105 3.482505,30.08427 1.833368,11.84725 2.608946,23.86313 3.359231,35.88321 0.849978,13.87676 1.094107,27.79841 1.220533,41.71249 0.146798,13.21151 0.161826,26.42428 0.164061,39.63686 -0.139254,11.22078 0.133696,22.42194 0.510446,33.62846 0.435201,7.36259 0.247917,14.7833 0.792978,22.13311 0.204523,0.85692 0.318338,2.0674 1.020347,2.60173 1.402907,1.0678 4.701588,-0.1966 6.156814,-0.58602 2.540642,-0.83558 5.089432,-1.68358 7.707552,-1.97315 2.03799,-0.17191 4.08163,-0.15904 6.1229,-0.1573 2.45509,0.0341 4.91036,0.0491 7.36554,0.0245 1.4948,-0.0137 2.98956,0.0109 4.48437,0.0157 0,0 -11.81557,11.08796 -11.81557,11.08796 l 0,0 c -1.50394,0.003 -3.00791,0.027 -4.51182,0.007 -2.45854,-0.0355 -4.91737,-0.0342 -7.37596,-0.006 -2.00852,0.0134 -4.02331,0.0204 -6.020592,0.32902 -2.529094,0.49078 -5.010078,1.2646 -7.513675,1.93016 -3.799147,0.75666 -7.431357,1.28048 -8.466218,-4.6526 -0.370849,-7.4615 -0.07345,-14.96838 -0.457371,-22.43446 -0.357115,-11.26915 -0.514412,-22.53505 -0.359629,-33.81429 0.0082,-13.23168 0.04093,-26.46375 -0.03255,-39.69517 -0.172364,-13.85343 -0.376731,-27.71611 -1.291733,-41.52847 -0.774686,-11.9435 -1.583427,-23.87784 -3.410761,-35.65037 -1.431953,-9.99397 -2.702741,-20.02836 -3.782,-30.09549 -0.246449,-3.33078 -0.698861,-6.8048 -0.234809,-10.14482 0.123175,-0.88655 0.0097,-2.06096 0.567967,-2.60064 8.466469,-8.18445 9.550311,-8.6889 15.666608,-12.32981 6.872641,-2.44952 14.041003,-2.77748 21.067163,-4.16423 0,0 -11.72757,11.2174 -11.72757,11.2174 z"
       inkscape:connector-curvature="0" />
    <path
       style="opacity:1;fill:#000000;fill-opacity:1;stroke:none;stroke-width:10;stroke-miterlimit:4;stroke-dasharray:none;stroke-opacity:1"
       id="path3361-1"
       d="m 483.36069,394.13243 c 5.96222,0.93347 12.11391,0.96847 17.94589,3.01363 0.91915,0.32233 1.79519,0.82278 2.6928,1.23417 6.72653,5.40988 -3.90989,-3.21382 -9.01342,-6.12991 -0.51192,-0.29251 0.62434,1.21833 0.809,1.90093 0.80446,2.97373 0.38408,6.47849 0.2545,9.52172 -0.83593,10.08383 -2.11077,20.10106 -3.48251,30.08427 -1.83337,11.84725 -2.60894,23.86312 -3.35923,35.8832 -0.84998,13.87677 -1.09411,27.79842 -1.22053,41.7125 -0.1468,13.2115 -0.16183,26.42428 -0.16406,39.63686 0.13925,11.22078 -0.1337,22.42194 -0.51045,33.62846 -0.4352,7.36259 -0.24792,14.7833 -0.79298,22.13311 -0.20452,0.85692 -0.31834,2.0674 -1.02035,2.60172 -1.4029,1.06781 -4.70158,-0.19659 -6.15681,-0.58601 -2.54064,-0.83558 -5.08943,-1.68358 -7.70755,-1.97315 -2.03799,-0.17191 -4.08164,-0.15904 -6.1229,-0.1573 -2.45509,0.0341 -4.91036,0.0491 -7.36554,0.0245 -1.4948,-0.0137 -2.98957,0.0109 -4.48437,0.0157 0,0 11.81557,11.08796 11.81557,11.08796 l 0,0 c 1.50394,0.003 3.0079,0.027 4.51182,0.007 2.45854,-0.0355 4.91737,-0.0342 7.37596,-0.006 2.00852,0.0134 4.02331,0.0204 6.02059,0.32902 2.52909,0.49079 5.01008,1.26461 7.51368,1.93016 3.79914,0.75666 7.43135,1.28048 8.46621,-4.65259 0.37085,-7.46151 0.0735,-14.96838 0.45738,-22.43446 0.35711,-11.26915 0.51441,-22.53506 0.35962,-33.8143 -0.008,-13.23168 -0.0409,-26.46374 0.0326,-39.69517 0.17236,-13.85343 0.37673,-27.71611 1.29173,-41.52847 0.77469,-11.9435 1.58343,-23.87784 3.41077,-35.65037 1.43195,-9.99396 2.70273,-20.02835 3.78199,-30.09549 0.24645,-3.33078 0.69886,-6.80479 0.23481,-10.14481 -0.12317,-0.88655 -0.01,-2.06097 -0.56796,-2.60065 -8.46647,-8.18444 -9.55031,-8.68889 -15.66661,-12.32981 -6.87264,-2.44951 -14.041,-2.77747 -21.06717,-4.16422 0,0 11.72758,11.2174 11.72758,11.2174 z"
       inkscape:connector-curvature="0" />
    <g
       id="g4274"
       transform="matrix(0.4901582,0,0,0.42921806,41.719446,208.15521)">
      <ellipse
         ry="20.17152"
         rx="21.181662"
         cy="585.70325"
         cx="182.86914"
         id="path3355"
         style="opacity:1;fill:#0012ff;fill-opacity:0.74522292;stroke:none;stroke-width:10;stroke-miterlimit:4;stroke-dasharray:none;stroke-opacity:1" />
      <ellipse
         ry="20.17152"
         rx="21.181662"
         cy="679.30023"
         cx="182.86914"
         id="path3355-4"
         style="opacity:1;fill:#0012ff;fill-opacity:0.74522292;stroke:none;stroke-width:10;stroke-miterlimit:4;stroke-dasharray:none;stroke-opacity:1" />
      <ellipse
         ry="20.17152"
         rx="21.181662"
         cy="772.89716"
         cx="182.86914"
         id="path3355-0"
         style="opacity:1;fill:#0012ff;fill-opacity:0.74522292;stroke:none;stroke-width:10;stroke-miterlimit:4;stroke-dasharray:none;stroke-opacity:1" />
      <ellipse
         ry="20.17152"
         rx="21.181662"
         cy="866.49414"
         cx="182.86914"
         id="path3355-05"
         style="opacity:1;fill:#0012ff;fill-opacity:0.74522292;stroke:none;stroke-width:10;stroke-miterlimit:4;stroke-dasharray:none;stroke-opacity:1" />
    </g>
    <g
       id="g4284"
       transform="matrix(0.4901582,0,0,0.42921806,43.710295,208.15521)">
      <ellipse
         ry="20.17152"
         rx="21.181662"
         cy="682.31494"
         cx="331.33002"
         id="path3355-4-3"
         style="opacity:1;fill:#0fbe41;fill-opacity:0.74522286;stroke:none;stroke-width:10;stroke-miterlimit:4;stroke-dasharray:none;stroke-opacity:1" />
      <ellipse
         ry="20.17152"
         rx="21.181662"
         cy="775.91193"
         cx="331.33002"
         id="path3355-0-8"
         style="opacity:1;fill:#0fbe41;fill-opacity:0.74522286;stroke:none;stroke-width:10;stroke-miterlimit:4;stroke-dasharray:none;stroke-opacity:1" />
      <ellipse
         ry="20.17152"
         rx="21.181662"
         cy="869.50885"
         cx="331.33002"
         id="path3355-05-9"
         style="opacity:1;fill:#0fbe41;fill-opacity:0.74522286;stroke:none;stroke-width:10;stroke-miterlimit:4;stroke-dasharray:none;stroke-opacity:1" />
    </g>
    <g
       id="g4280"
       transform="matrix(0.4901582,0,0,0.42921806,48.161358,208.15521)">
      <ellipse
         ry="20.17152"
         rx="21.181662"
         cy="777.93219"
         cx="474.7717"
         id="path3355-0-4"
         style="opacity:1;fill:#ff0062;fill-opacity:0.74522292;stroke:none;stroke-width:10;stroke-miterlimit:4;stroke-dasharray:none;stroke-opacity:1" />
      <ellipse
         ry="20.17152"
         rx="21.181662"
         cy="871.52911"
         cx="474.7717"
         id="path3355-05-92"
         style="opacity:1;fill:#ff0062;fill-opacity:0.74522292;stroke:none;stroke-width:10;stroke-miterlimit:4;stroke-dasharray:none;stroke-opacity:1" />
    </g>
    <ellipse
       style="opacity:1;fill:#cfd928;fill-opacity:0.74522292;stroke:none;stroke-width:10;stroke-miterlimit:4;stroke-dasharray:none;stroke-opacity:1"
       id="path3355-05-3"
       cx="355.6348"
       cy="584.8327"
       rx="10.382365"
       ry="8.6579809" />
    <path
       style="opacity:1;fill:#bbbbbb;fill-opacity:0.74522292;stroke:none;stroke-width:10;stroke-miterlimit:4;stroke-dasharray:none;stroke-opacity:1"
       id="path4304"
       d="m 126.97552,404.46817 c 9.46396,8.39589 20.68428,14.48899 31.60225,20.81531 32.81266,18.33247 66.6476,34.80999 100.665,50.84158 6.38221,3.02481 12.7875,6.00286 19.14663,9.07443 8.01703,3.87236 29.56171,14.58197 37.65993,18.6359 12.84816,6.43173 21.21809,10.59184 33.75193,17.36657 4.92799,2.66365 9.78961,5.44469 14.68442,8.16704 19.33984,10.92454 38.03554,22.88423 56.09175,35.7535 5.3192,4.23341 10.90411,8.09283 16.52571,11.91633 1.30729,0.8914 2.74713,1.4159 4.25112,1.86383 0,0 -12.13025,8.07996 -12.13025,8.07996 l 0,0 c -1.55182,-0.60091 -3.04139,-1.27054 -4.37802,-2.27857 -5.35474,-3.97939 -10.4841,-8.20986 -15.48665,-12.61509 -16.92517,-13.70319 -35.01244,-25.89275 -53.78015,-37.02512 -4.7786,-2.7866 -9.5179,-5.63963 -14.33581,-8.35983 -29.21906,-16.49714 -59.55638,-31.01072 -89.84201,-45.48 -34.37986,-16.26979 -68.81741,-32.42902 -102.76922,-49.55563 -5.6403,-2.89707 -13.45287,-6.83452 -19.15685,-10.01581 -4.58517,-2.55728 -8.88185,-5.44506 -13.27237,-8.29182 -0.55565,-0.36028 -1.13426,-0.68494 -1.70139,-1.02741 0,0 12.47398,-7.86517 12.47398,-7.86517 z"
       inkscape:connector-curvature="0" />
    <path
       style="opacity:1;fill:#bbbbbb;fill-opacity:0.74522292;stroke:none;stroke-width:10;stroke-miterlimit:4;stroke-dasharray:none;stroke-opacity:1"
       id="path4306"
       d="m 354.04843,471.99015 c -4.67871,-0.72445 -9.27337,-2.24937 -13.12666,-4.72124 -1.23297,-0.79094 -2.33161,-1.73106 -3.49741,-2.59659 -5.94589,-5.10067 -10.44762,-11.70073 -10.85969,-19.16351 -0.0839,-1.51879 0.20686,-3.03574 0.31029,-4.55361 0.55513,-1.49771 0.91512,-3.06211 1.66539,-4.49313 2.27898,-4.34679 6.3709,-8.30477 11.04401,-10.76697 15.54527,-8.19058 11.46784,-6.68906 22.3289,-9.71429 1.98496,-0.28422 3.95051,-0.70631 5.95488,-0.85266 9.01879,-0.65852 18.44009,1.4461 26.51791,4.88691 2.1144,0.90065 4.08154,2.04526 6.12231,3.06789 6.66838,4.11501 13.58923,9.07153 15.64436,16.36751 1.18921,4.22185 0.46627,5.28834 -0.3696,9.44672 -0.8996,1.55424 -1.53802,3.24744 -2.6988,4.66272 -2.83199,3.45292 -7.09428,6.34778 -11.195,8.50349 -10.27004,5.39888 -15.96516,8.50456 -25.94492,11.7774 -2.39837,0.78655 -4.86519,1.40265 -7.29778,2.10397 -2.16741,0.4297 -4.3348,0.8594 -6.5022,1.2891 0,0 10.4532,-6.96677 10.4532,-6.96677 l 0,0 c 2.06733,-0.40914 4.13466,-0.81829 6.20199,-1.22744 2.36225,-0.6916 4.76222,-1.29134 7.08678,-2.0748 2.56983,-0.86613 4.89451,-2.34854 7.58308,-2.86951 1.38179,-0.26775 -4.69006,2.77586 -3.51766,2.08174 6.28184,-3.71912 10.53716,-5.81706 13.72253,-12.13636 0.99142,-3.90268 1.73389,-4.85741 0.75855,-8.88852 -1.71423,-7.08497 -8.43967,-11.91358 -14.83603,-15.85427 -1.99837,-0.985 -3.92204,-2.09654 -5.99513,-2.95503 -8.0896,-3.35002 -17.39108,-5.11725 -26.33257,-4.21751 -1.97104,0.19833 -3.8953,0.66219 -5.84294,0.99328 -1.86636,0.57875 -6.16622,3.39736 -5.59908,1.73624 0.70211,-2.05644 3.9873,-2.53519 6.19205,-3.47304 1.66852,-0.70974 -3.15685,1.72869 -4.56853,2.78243 -2.44548,1.82543 -5.23585,4.77769 -6.7124,7.29706 -0.77841,1.32816 -1.18449,2.79977 -1.77674,4.19965 -0.14764,1.4394 -0.48261,2.87342 -0.44293,4.31819 0.19785,7.20484 4.71312,13.5174 10.49061,18.33976 1.14778,0.79963 2.22305,1.68634 3.44335,2.39888 3.93509,2.29772 8.7571,3.67883 13.48668,3.70723 0,0 -11.8908,7.56508 -11.8908,7.56508 z"
       inkscape:connector-curvature="0" />
    <path
       style="opacity:1;fill:#000000;fill-opacity:1;stroke:none;stroke-width:10;stroke-miterlimit:4;stroke-dasharray:none;stroke-opacity:1"
       id="path3361-7"
       d="m 593.48615,717.73547 c -4.85935,1.00895 -9.87313,1.0468 -14.62633,3.25737 -0.74914,0.3484 -1.46313,0.88933 -2.1947,1.33398 -5.48229,5.84742 3.18665,-3.47375 7.34615,-6.62568 0.41724,-0.31617 -0.50886,1.31686 -0.65934,2.05467 -0.65567,3.21423 -0.31305,7.00247 -0.20743,10.29182 0.68131,10.8994 1.72031,21.72679 2.83832,32.51744 1.49424,12.80544 2.12636,25.79314 2.73786,38.78538 0.69275,14.9991 0.89172,30.04671 0.99476,45.08614 0.11965,14.28003 0.1319,28.56142 0.13372,42.84263 -0.1135,12.12829 0.10897,24.23539 0.41603,36.34827 0.3547,7.95806 0.20205,15.97895 0.64628,23.9232 0.1667,0.92622 0.25945,2.23461 0.83162,2.81215 1.1434,1.15417 3.8319,-0.21249 5.01795,-0.63341 2.07069,-0.90317 4.14801,-1.81974 6.28184,-2.13274 1.66101,-0.18581 3.32663,-0.1719 4.99032,-0.17002 2.00094,0.0369 4.00204,0.0531 6.00307,0.0264 1.21831,-0.0148 2.43657,0.0118 3.65488,0.0169 0,0 -9.62997,11.98474 -9.62997,11.98474 l 0,0 c -1.22575,0.003 -2.45152,0.0292 -3.67724,0.008 -2.00378,-0.0384 -4.00778,-0.037 -6.0116,-0.007 -1.63698,0.0145 -3.27908,0.022 -4.90691,0.35563 -2.06129,0.53047 -4.08334,1.36688 -6.12384,2.08627 -3.0964,0.81785 -6.05673,1.38404 -6.90017,-5.0289 -0.30225,-8.06497 -0.0598,-16.179 -0.37277,-24.24892 -0.29105,-12.18058 -0.41925,-24.35765 -0.2931,-36.54914 0.007,-14.30184 0.0334,-28.60409 -0.0265,-42.90565 -0.14049,-14.97388 -0.30705,-29.95775 -1.0528,-44.88723 -0.63139,-12.90947 -1.29053,-25.80904 -2.77984,-38.53371 -1.16709,-10.80226 -2.20281,-21.64823 -3.08243,-32.52957 -0.20086,-3.60017 -0.56958,-7.35516 -0.19137,-10.96531 0.10039,-0.95826 0.008,-2.22765 0.46291,-2.81098 6.90037,-8.84639 7.78373,-9.39164 12.76865,-13.32703 5.60138,-2.64763 11.44377,-3.00211 17.17025,-4.50102 0,0 -9.55825,12.12464 -9.55825,12.12464 z"
       inkscape:connector-curvature="0" />
    <path
       style="opacity:1;fill:#000000;fill-opacity:1;stroke:none;stroke-width:10;stroke-miterlimit:4;stroke-dasharray:none;stroke-opacity:1"
       id="path3361-1-0"
       d="m 978.04723,718.07783 c 4.85942,1.00897 9.8732,1.04679 14.62634,3.25737 0.74916,0.3484 1.46313,0.88933 2.1947,1.33398 5.48223,5.84743 -3.18666,-3.47375 -7.34615,-6.62568 -0.4172,-0.31617 0.50891,1.31687 0.65936,2.05467 0.65569,3.21424 0.31305,7.00246 0.20743,10.29183 -0.68128,10.89939 -1.72036,21.72679 -2.83833,32.51743 -1.49426,12.80543 -2.12632,25.79313 -2.73782,38.78538 -0.69277,14.99909 -0.89173,30.04671 -0.99483,45.08614 -0.11964,14.28002 -0.13186,28.56143 -0.13366,42.84263 0.11345,12.12829 -0.10897,24.23539 -0.41606,36.34827 -0.3547,7.95806 -0.20205,15.97895 -0.64624,23.9232 -0.16675,0.92623 -0.2595,2.23461 -0.83165,2.81214 -1.1434,1.15418 -3.83191,-0.21248 -5.01794,-0.6334 -2.07065,-0.90316 -4.14799,-1.81974 -6.28188,-2.13274 -1.66094,-0.18581 -3.32661,-0.1719 -4.99031,-0.17001 -2.00089,0.0369 -4.00202,0.0531 -6.00306,0.0264 -1.2183,-0.0148 -2.43658,0.0118 -3.65487,0.0169 0,0 9.62997,11.98474 9.62997,11.98474 l 0,0 c 1.22571,0.003 2.45151,0.0292 3.67723,0.008 2.00382,-0.0384 4.0078,-0.037 6.01161,-0.007 1.63698,0.0145 3.27909,0.022 4.90694,0.35564 2.06128,0.53048 4.08335,1.36689 6.12384,2.08627 3.09636,0.81786 6.0567,1.38405 6.90016,-5.02889 0.30221,-8.06498 0.0595,-16.17899 0.37272,-24.24892 0.29112,-12.18058 0.41933,-24.35766 0.29316,-36.54914 -0.008,-14.30185 -0.0335,-28.60409 0.0269,-42.90566 0.14044,-14.97388 0.30702,-29.95775 1.05277,-44.88722 0.6314,-12.90948 1.29051,-25.80905 2.7798,-38.53372 1.16711,-10.80226 2.20285,-21.64822 3.08243,-32.52957 0.2009,-3.60017 0.56961,-7.35515 0.19136,-10.9653 -0.10033,-0.95826 -0.008,-2.22766 -0.46285,-2.81099 -6.9004,-8.84638 -7.78372,-9.39163 -12.76866,-13.32703 -5.60133,-2.64762 -11.44375,-3.0021 -17.17027,-4.50101 0,0 9.55828,12.12464 9.55828,12.12464 z"
       inkscape:connector-curvature="0" />
    <ellipse
       style="opacity:1;fill:#0012ff;fill-opacity:0.74522292;stroke:none;stroke-width:10;stroke-miterlimit:4;stroke-dasharray:none;stroke-opacity:1"
       id="path3355-1"
       cx="622.34192"
       cy="762.90582"
       rx="8.4618778"
       ry="6.790504" />
    <ellipse
       style="opacity:1;fill:#0012ff;fill-opacity:0.74522292;stroke:none;stroke-width:10;stroke-miterlimit:4;stroke-dasharray:none;stroke-opacity:1"
       id="path3355-05-4"
       cx="620.69531"
       cy="900.21326"
       rx="8.4618778"
       ry="6.790504" />
    <ellipse
       style="opacity:1;fill:#0fbe41;fill-opacity:0.74522286;stroke:none;stroke-width:10;stroke-miterlimit:4;stroke-dasharray:none;stroke-opacity:1"
       id="path3355-4-3-1"
       cx="683.27332"
       cy="795.42902"
       rx="8.4618778"
       ry="6.790504" />
    <ellipse
       style="opacity:1;fill:#0fbe41;fill-opacity:0.74522286;stroke:none;stroke-width:10;stroke-miterlimit:4;stroke-dasharray:none;stroke-opacity:1"
       id="path3355-05-9-7"
       cx="683.27332"
       cy="858.44562"
       rx="8.4618778"
       ry="6.790504" />
    <ellipse
       style="opacity:1;fill:#ff0062;fill-opacity:0.74522292;stroke:none;stroke-width:10;stroke-miterlimit:4;stroke-dasharray:none;stroke-opacity:1"
       id="path3355-0-4-9"
       cx="744.20471"
       cy="827.61743"
       rx="8.4618778"
       ry="6.790504" />
    <ellipse
       style="opacity:1;fill:#cfd928;fill-opacity:0.74522292;stroke:none;stroke-width:10;stroke-miterlimit:4;stroke-dasharray:none;stroke-opacity:1"
       id="path3355-05-3-7"
       cx="805.13605"
       cy="861.16608"
       rx="8.4618778"
       ry="6.790504" />
    <path
       style="opacity:1;fill:#bbbbbb;fill-opacity:0.74522292;stroke:none;stroke-width:10;stroke-miterlimit:4;stroke-dasharray:none;stroke-opacity:1"
       id="path4304-8"
       d="m 617.49751,717.20922 c 10.87423,10.16756 23.76658,17.54639 36.3115,25.20764 37.70227,22.2009 76.57915,42.15541 115.66568,61.56989 7.33328,3.66309 14.69305,7.26956 21.99979,10.98927 9.21168,4.68949 33.96687,17.65898 43.27184,22.56835 14.76276,7.78891 24.37994,12.82688 38.78151,21.03116 5.66234,3.22571 11.24841,6.59361 16.87263,9.89041 22.22178,13.22977 43.70344,27.71314 64.45031,43.29801 6.11186,5.12671 12.52901,9.80053 18.98831,14.43085 1.50212,1.07948 3.15648,1.71467 4.88464,2.25712 0,0 -13.93798,9.78495 -13.93798,9.78495 l 0,0 c -1.78292,-0.72772 -3.49452,-1.53865 -5.03031,-2.75937 -6.1527,-4.8191 -12.04642,-9.94227 -17.79443,-15.27707 -19.44728,-16.59476 -40.22983,-31.35649 -61.79424,-44.83795 -5.4907,-3.37461 -10.9362,-6.82968 -16.47207,-10.12388 -33.57315,-19.97827 -68.43123,-37.55444 -103.2299,-55.07694 -39.50299,-19.70295 -79.07229,-39.27202 -118.08347,-60.0126 -6.48079,-3.50838 -15.45754,-8.27669 -22.01151,-12.12928 -5.26844,-3.0969 -10.20539,-6.59405 -15.25017,-10.04152 -0.63845,-0.43629 -1.30327,-0.82946 -1.95492,-1.24419 0,0 14.33279,-9.52485 14.33279,-9.52485 z"
       inkscape:connector-curvature="0" />
    <path
       style="opacity:1;fill:#bbbbbb;fill-opacity:0.74522292;stroke:none;stroke-width:10;stroke-miterlimit:4;stroke-dasharray:none;stroke-opacity:1"
       id="path4306-0"
       d="m 816.89061,806.03624 c -6.0332,-0.99249 -11.95801,-3.0816 -16.92683,-6.46802 -1.58991,-1.08358 -3.00661,-2.37153 -4.50991,-3.55729 -7.66722,-6.98783 -13.47221,-16.02981 -14.00357,-26.25369 -0.10818,-2.08071 0.26675,-4.15891 0.40013,-6.23837 0.71583,-2.05184 1.18004,-4.19504 2.14752,-6.15552 2.93874,-5.95503 8.21527,-11.37739 14.24124,-14.75056 20.04562,-11.22096 14.78778,-9.16391 28.79312,-13.30842 2.5596,-0.38938 5.09417,-0.96763 7.67881,-1.16813 11.62973,-0.90216 23.77849,1.98113 34.19484,6.69499 2.72652,1.23387 5.26314,2.80197 7.89471,4.20295 8.59888,5.6375 17.52332,12.42785 20.17341,22.42322 1.53348,5.78387 0.60126,7.24494 -0.4766,12.94185 -1.16003,2.12928 -1.98328,4.44894 -3.48011,6.38785 -3.65185,4.73044 -9.14807,8.69635 -14.43595,11.64964 -13.24321,7.39637 -20.58707,11.65111 -33.45596,16.13484 -3.0927,1.07756 -6.27366,1.92161 -9.41049,2.8824 -2.79487,0.58869 -5.58973,1.17736 -8.38459,1.76605 0,0 13.4794,-9.54436 13.4794,-9.54436 l 0,0 c 2.66582,-0.56051 5.33164,-1.12105 7.99746,-1.68157 3.04613,-0.94748 6.14089,-1.76911 9.13841,-2.84244 3.3138,-1.18659 6.31147,-3.21746 9.77838,-3.93118 1.78183,-0.36682 -6.04782,3.80288 -4.53602,2.85195 8.10043,-5.09514 13.58766,-7.96928 17.69519,-16.62662 1.27845,-5.3466 2.23586,-6.65456 0.97816,-12.17712 -2.21051,-9.70629 -10.88295,-16.32141 -19.13106,-21.72008 -2.5769,-1.34944 -5.05747,-2.87223 -7.73072,-4.04835 -10.43153,-4.58947 -22.42579,-7.01054 -33.95585,-5.77791 -2.54164,0.2717 -5.02298,0.90719 -7.53446,1.36077 -2.40667,0.79288 -7.95134,4.65433 -7.22001,2.37862 0.90537,-2.81729 5.14161,-3.47317 7.98464,-4.758 2.15155,-0.97234 -4.07075,2.36827 -5.89112,3.81188 -3.15344,2.50081 -6.75163,6.54535 -8.65563,9.99685 -1.00376,1.81955 -1.5274,3.83564 -2.29111,5.75345 -0.19038,1.97195 -0.62233,3.93653 -0.57117,5.91585 0.25514,9.87051 6.07758,18.51861 13.52765,25.12516 1.48006,1.09548 2.86663,2.31026 4.4402,3.28643 5.0743,3.14783 11.29229,5.03993 17.39107,5.07884 0,0 -15.33318,10.36404 -15.33318,10.36404 z"
       inkscape:connector-curvature="0" />
    <ellipse
       style="opacity:1;fill:#cfd928;fill-opacity:0.74522292;stroke:none;stroke-width:10;stroke-miterlimit:4;stroke-dasharray:none;stroke-opacity:1"
       id="path3355-05-3-7-4"
       cx="866.58972"
       cy="895.26935"
       rx="8.4618778"
       ry="6.790504" />
    <ellipse
       style="opacity:1;fill:#cfd928;fill-opacity:0.74522292;stroke:none;stroke-width:10;stroke-miterlimit:4;stroke-dasharray:none;stroke-opacity:1"
       id="path3355-05-3-7-5"
       cx="925.85059"
       cy="928.57648"
       rx="8.4618778"
       ry="6.790504" />
    <path
       style="opacity:1;fill:#000000;fill-opacity:1;stroke:none;stroke-width:10;stroke-miterlimit:4;stroke-dasharray:none;stroke-opacity:1"
       id="path3361-5"
       d="m 80.177129,723.18749 c -5.291633,1.02912 -10.751423,1.06771 -15.927465,3.32245 -0.815774,0.35536 -1.593283,0.90711 -2.38993,1.36065 -5.969978,5.96425 3.470129,-3.54317 7.999648,-6.75809 0.454348,-0.32248 -0.554118,1.34319 -0.718006,2.09574 -0.713983,3.27845 -0.340884,7.14239 -0.225871,10.49746 0.74191,11.11718 1.873359,22.16092 3.090818,33.16717 1.627164,13.0613 2.31551,26.30852 2.981408,39.56037 0.754379,15.29878 0.97105,30.64706 1.083257,45.98699 0.130287,14.56537 0.143625,29.13213 0.145609,43.69867 -0.123592,12.37064 0.118659,24.71964 0.453034,37.07456 0.386253,8.11707 0.220034,16.29822 0.70379,24.40121 0.181519,0.94474 0.282534,2.27925 0.905586,2.86834 1.245118,1.17722 4.172787,-0.21675 5.464339,-0.64607 2.25489,-0.92121 4.517013,-1.85611 6.840663,-2.17535 1.808772,-0.18952 3.622559,-0.17534 5.434245,-0.17342 2.178951,0.0375 4.358066,0.0541 6.537106,0.0269 1.32667,-0.0151 2.65331,0.012 3.97999,0.0173 0,0 -10.486622,12.22421 -10.486622,12.22421 l 0,0 c -1.334787,0.003 -2.669602,0.0297 -4.004363,0.007 -2.182026,-0.0392 -4.3643,-0.0376 -6.546369,-0.006 -1.782613,0.0149 -3.570794,0.0226 -5.343436,0.36274 -2.24464,0.54106 -4.446582,1.39419 -6.668592,2.12794 -3.371846,0.8342 -6.595532,1.41171 -7.513999,-5.12936 -0.329138,-8.22613 -0.06519,-16.50228 -0.405929,-24.73346 -0.316949,-12.42396 -0.456555,-24.84434 -0.319181,-37.27943 0.0073,-14.58759 0.03633,-29.17563 -0.02889,-43.76295 -0.152977,-15.27307 -0.334358,-30.55632 -1.146448,-45.78412 -0.687554,-13.16742 -1.405334,-26.32472 -3.027144,-39.30365 -1.270897,-11.01812 -2.398755,-22.08077 -3.356627,-33.17955 -0.21873,-3.67209 -0.620259,-7.50213 -0.208399,-11.18441 0.10932,-0.9774 0.0086,-2.27216 0.504086,-2.86714 7.514222,-9.02317 8.476161,-9.5793 13.904541,-13.59331 6.099656,-2.70055 12.461773,-3.06212 18.697685,-4.59097 0,0 -10.408542,12.36691 -10.408542,12.36691 z"
       inkscape:connector-curvature="0" />
    <path
       style="opacity:1;fill:#000000;fill-opacity:1;stroke:none;stroke-width:10;stroke-miterlimit:4;stroke-dasharray:none;stroke-opacity:1"
       id="path3361-1-1"
       d="m 472.79759,720.45617 c 5.29162,1.02913 10.75141,1.06772 15.92746,3.32246 0.81577,0.35535 1.59328,0.9071 2.38993,1.36064 5.96998,5.96426 -3.47014,-3.54316 -7.99965,-6.75808 -0.45435,-0.32247 0.55411,1.34318 0.71801,2.09572 0.71398,3.27847 0.34087,7.14239 0.22586,10.49747 -0.74191,11.11718 -1.87336,22.16092 -3.09081,33.16718 -1.62717,13.0613 -2.31551,26.30849 -2.98141,39.56035 -0.75439,15.2988 -0.97106,30.64707 -1.08325,45.987 -0.13029,14.56536 -0.14363,29.13212 -0.14561,43.69868 0.12359,12.37063 -0.11867,24.71963 -0.45304,37.07455 -0.38625,8.11707 -0.22004,16.29822 -0.70379,24.40121 -0.18152,0.94473 -0.28253,2.27925 -0.90559,2.86834 -1.24512,1.17724 -4.17278,-0.21674 -5.46433,-0.64607 -2.25489,-0.92121 -4.51702,-1.8561 -6.84067,-2.17535 -1.80877,-0.18952 -3.62257,-0.17534 -5.43424,-0.17342 -2.17896,0.0375 -4.35807,0.0541 -6.53712,0.0269 -1.32668,-0.0151 -2.65332,0.0121 -3.97999,0.0174 0,0 10.48664,12.2242 10.48664,12.2242 l 0,0 c 1.33479,0.003 2.66958,0.0297 4.00435,0.007 2.18203,-0.0392 4.36431,-0.0376 6.54637,-0.006 1.78263,0.0149 3.5708,0.0226 5.34344,0.36273 2.24463,0.54109 4.44659,1.39421 6.66859,2.12796 3.37184,0.83421 6.59553,1.4117 7.51399,-5.12936 0.32915,-8.22613 0.0653,-16.50228 0.40594,-24.73345 0.31695,-12.42396 0.45656,-24.84435 0.31918,-37.27944 -0.007,-14.5876 -0.0364,-29.17563 0.0289,-43.76294 0.15298,-15.27308 0.33436,-30.55634 1.14645,-45.78413 0.68755,-13.16742 1.40534,-26.32473 3.02715,-39.30366 1.2709,-11.01809 2.39875,-22.08076 3.35661,-33.17954 0.21873,-3.6721 0.62026,-7.50212 0.20841,-11.18441 -0.10932,-0.9774 -0.008,-2.27217 -0.50409,-2.86715 -7.51421,-9.02314 -8.47616,-9.57928 -13.90453,-13.59331 -6.09966,-2.70053 -12.46178,-3.06209 -18.6977,-4.59096 0,0 10.40855,12.36692 10.40855,12.36692 z"
       inkscape:connector-curvature="0" />
    <path
       style="opacity:1;fill:#bbbbbb;fill-opacity:0.74522292;stroke:none;stroke-width:10;stroke-miterlimit:4;stroke-dasharray:none;stroke-opacity:1"
       id="path4304-7"
       d="m 108.44729,736.52557 c 10.51836,9.71298 22.98874,16.76193 35.12308,24.08067 36.46835,21.20835 74.07283,40.27075 111.88013,58.81727 7.09326,3.49931 14.21215,6.94455 21.27977,10.49796 8.91021,4.47983 32.85518,16.8695 41.85563,21.55938 14.27958,7.4407 23.58201,12.25341 37.51224,20.09091 5.47703,3.08151 10.88028,6.29882 16.32042,9.44822 21.49451,12.63832 42.27309,26.47418 62.34096,41.36229 5.91182,4.89751 12.11895,9.36237 18.36684,13.78568 1.45294,1.03123 3.05319,1.63801 4.72474,2.15622 0,0 -13.48168,9.34747 -13.48168,9.34747 l 0,0 c -1.72471,-0.69517 -3.38024,-1.46984 -4.86577,-2.63601 -5.95133,-4.60364 -11.65214,-9.49776 -17.21203,-14.59406 -18.81081,-15.85285 -38.91318,-29.95462 -59.77181,-42.83336 -5.31099,-3.22374 -10.5783,-6.52435 -15.93297,-9.67127 -32.47437,-19.08508 -66.1916,-35.87547 -99.85135,-52.61459 -38.21013,-18.82209 -76.48439,-37.51627 -114.21878,-57.32958 -6.26869,-3.35154 -14.95166,-7.90668 -21.29112,-11.58702 -5.09601,-2.95846 -9.87138,-6.29925 -14.751046,-9.59259 -0.617555,-0.4168 -1.260633,-0.79239 -1.890947,-1.18859 0,0 13.863693,-9.099 13.863693,-9.099 z"
       inkscape:connector-curvature="0" />
    <path
       style="opacity:1;fill:#bbbbbb;fill-opacity:0.74522292;stroke:none;stroke-width:10;stroke-miterlimit:4;stroke-dasharray:none;stroke-opacity:1"
       id="path4306-6"
       d="m 355.09659,832.08398 c -4.72814,-1.09452 -9.37136,-3.3984 -13.26536,-7.13297 -1.246,-1.19497 -2.35625,-2.61533 -3.53436,-3.92299 -6.00872,-7.70623 -10.55802,-17.67777 -10.97444,-28.95272 -0.0848,-2.29463 0.20904,-4.58647 0.31357,-6.87971 0.56099,-2.26277 0.92478,-4.62632 1.68299,-6.78834 2.30306,-6.56724 6.43821,-12.54705 11.1607,-16.26701 15.70952,-12.37453 11.58901,-10.106 22.56483,-14.6766 2.00593,-0.4294 3.99226,-1.06711 6.0178,-1.28822 9.11409,-0.99491 18.63493,2.18481 26.7981,7.38327 2.13675,1.36073 4.12467,3.09003 6.18701,4.63505 6.73884,6.21706 13.73282,13.7055 15.80967,24.72845 1.20177,6.37847 0.47119,7.98976 -0.37352,14.27235 -0.9091,2.34818 -1.55426,4.90632 -2.72732,7.04455 -2.8619,5.21676 -7.16923,9.59039 -11.31328,12.84729 -10.37855,8.15678 -16.13385,12.84892 -26.21906,17.7936 -2.42371,1.18834 -4.91659,2.11916 -7.37489,3.17873 -2.19031,0.6492 -4.38061,1.2984 -6.57091,1.9476 0,0 10.56365,-10.52556 10.56365,-10.52556 l 0,0 c 2.08919,-0.61815 4.17835,-1.2363 6.26752,-1.85446 2.38722,-1.04489 4.81254,-1.95099 7.16167,-3.13466 2.59699,-1.30857 4.94622,-3.54823 7.66321,-4.33532 1.39638,-0.40453 -4.73962,4.19384 -3.55483,3.14515 6.34822,-5.61895 10.6485,-8.78857 13.86752,-18.33593 1.00189,-5.89627 1.75221,-7.3387 0.76657,-13.42901 -1.73235,-10.70415 -8.52885,-17.99933 -14.9928,-23.95303 -2.01949,-1.48816 -3.96348,-3.16751 -6.05848,-4.46454 -8.17507,-5.06129 -17.57483,-7.73127 -26.6108,-6.37192 -1.99187,0.29964 -3.93646,1.00046 -5.90467,1.50068 -1.88609,0.87438 -6.23138,5.13281 -5.65825,2.62315 0.70952,-3.10692 4.02944,-3.83023 6.25747,-5.24715 1.68616,-1.0723 -3.1902,2.61175 -4.61679,4.20375 -2.47132,2.75791 -5.29117,7.21826 -6.78333,11.02459 -0.78663,2.00662 -1.19701,4.22997 -1.79552,6.34494 -0.14919,2.17468 -0.4877,4.34124 -0.4476,6.52403 0.19994,10.88526 4.76291,20.42243 10.60145,27.70819 1.15991,1.20809 2.24654,2.54775 3.47974,3.62428 3.97667,3.47145 8.84963,5.55807 13.62918,5.60098 0,0 -12.01644,11.42951 -12.01644,11.42951 z"
       inkscape:connector-curvature="0" />
    <g
       id="g4630"
       transform="matrix(0.84107499,0,0,0.89833193,36.294232,101.02847)">
      <ellipse
         ry="6.790504"
         rx="8.803298"
         cy="745.27582"
         cx="74.751289"
         id="path3355-05-9-7-9"
         style="opacity:1;fill:#272727;fill-opacity:0.74522286;stroke:none;stroke-width:10;stroke-miterlimit:4;stroke-dasharray:none;stroke-opacity:1" />
      <ellipse
         ry="6.790504"
         rx="8.803298"
         cy="771.82837"
         cx="126.99061"
         id="path3355-05-9-7-9-2"
         style="opacity:1;fill:#272727;fill-opacity:0.74522286;stroke:none;stroke-width:10;stroke-miterlimit:4;stroke-dasharray:none;stroke-opacity:1" />
      <ellipse
         ry="6.790504"
         rx="8.803298"
         cy="798.38098"
         cx="179.22993"
         id="path3355-05-9-7-9-1"
         style="opacity:1;fill:#272727;fill-opacity:0.74522286;stroke:none;stroke-width:10;stroke-miterlimit:4;stroke-dasharray:none;stroke-opacity:1" />
      <ellipse
         ry="6.790504"
         rx="8.803298"
         cy="824.93359"
         cx="231.46925"
         id="path3355-05-9-7-9-8"
         style="opacity:1;fill:#272727;fill-opacity:0.74522286;stroke:none;stroke-width:10;stroke-miterlimit:4;stroke-dasharray:none;stroke-opacity:1" />
      <ellipse
         ry="6.790504"
         rx="8.803298"
         cy="851.48615"
         cx="283.70856"
         id="path3355-05-9-7-9-20"
         style="opacity:1;fill:#272727;fill-opacity:0.74522286;stroke:none;stroke-width:10;stroke-miterlimit:4;stroke-dasharray:none;stroke-opacity:1" />
      <ellipse
         ry="6.790504"
         rx="8.803298"
         cy="878.03876"
         cx="335.94788"
         id="path3355-05-9-7-9-89"
         style="opacity:1;fill:#272727;fill-opacity:0.74522286;stroke:none;stroke-width:10;stroke-miterlimit:4;stroke-dasharray:none;stroke-opacity:1" />
      <ellipse
         ry="6.790504"
         rx="8.803298"
         cy="904.59131"
         cx="388.18719"
         id="path3355-05-9-7-9-4"
         style="opacity:1;fill:#272727;fill-opacity:0.74522286;stroke:none;stroke-width:10;stroke-miterlimit:4;stroke-dasharray:none;stroke-opacity:1" />
      <ellipse
         ry="6.790504"
         rx="8.803298"
         cy="931.14392"
         cx="440.42651"
         id="path3355-05-9-7-9-0"
         style="opacity:1;fill:#272727;fill-opacity:0.74522286;stroke:none;stroke-width:10;stroke-miterlimit:4;stroke-dasharray:none;stroke-opacity:1" />
    </g>
    <g
       id="g4624"
       transform="matrix(0.84107499,0,0,0.89833193,34.612082,97.435139)">
      <ellipse
         ry="6.790504"
         rx="8.803298"
         cy="935.18451"
         cx="387.89859"
         id="path3355-05-9-7-9-5"
         style="opacity:1;fill:#272727;fill-opacity:0.74522286;stroke:none;stroke-width:10;stroke-miterlimit:4;stroke-dasharray:none;stroke-opacity:1" />
      <ellipse
         ry="6.790504"
         rx="8.803298"
         cy="781.6413"
         cx="76.771591"
         id="path3355-05-9-7-9-6"
         style="opacity:1;fill:#272727;fill-opacity:0.74522286;stroke:none;stroke-width:10;stroke-miterlimit:4;stroke-dasharray:none;stroke-opacity:1" />
      <ellipse
         ry="6.790504"
         rx="8.803298"
         cy="832.82239"
         cx="180.48061"
         id="path3355-05-9-7-9-9"
         style="opacity:1;fill:#272727;fill-opacity:0.74522286;stroke:none;stroke-width:10;stroke-miterlimit:4;stroke-dasharray:none;stroke-opacity:1" />
      <ellipse
         ry="6.790504"
         rx="8.803298"
         cy="884.00342"
         cx="284.18958"
         id="path3355-05-9-7-9-92"
         style="opacity:1;fill:#272727;fill-opacity:0.74522286;stroke:none;stroke-width:10;stroke-miterlimit:4;stroke-dasharray:none;stroke-opacity:1" />
    </g>
    <ellipse
       style="opacity:1;fill:#272727;fill-opacity:0.74522286;stroke:none;stroke-width:10;stroke-miterlimit:4;stroke-dasharray:none;stroke-opacity:1"
       id="path3355-05-9-7-9-26"
       cx="94.067993"
       cy="935.68982"
       rx="7.4042339"
       ry="6.1001267" />
    <g
       id="g4640"
       transform="matrix(0.84107499,0,0,0.89833193,36.294232,101.02847)">
      <ellipse
         ry="6.790504"
         rx="8.803298"
         cy="852.35199"
         cx="72.73098"
         id="path3355-05-9-7-9-23"
         style="opacity:1;fill:#272727;fill-opacity:0.74522286;stroke:none;stroke-width:10;stroke-miterlimit:4;stroke-dasharray:none;stroke-opacity:1" />
      <ellipse
         ry="6.790504"
         rx="8.803298"
         cy="945.28601"
         cx="280.82242"
         id="path3355-05-9-7-9-16"
         style="opacity:1;fill:#272727;fill-opacity:0.74522286;stroke:none;stroke-width:10;stroke-miterlimit:4;stroke-dasharray:none;stroke-opacity:1" />
    </g>
    <ellipse
       style="opacity:1;fill:#f11439;fill-opacity:0.375;stroke:none;stroke-width:10;stroke-miterlimit:4;stroke-dasharray:none;stroke-opacity:1"
       id="path4644"
       cx="621.59875"
       cy="628.74921"
       rx="225.23996"
       ry="12.856568"
       transform="matrix(0.88069061,0.47369193,-0.4369231,0.89949886,0,0)" />
    <ellipse
       style="opacity:1;fill:#0bad32;fill-opacity:0.375;stroke:none;stroke-width:10;stroke-miterlimit:4;stroke-dasharray:none;stroke-opacity:1"
       id="path4644-3"
       cx="607.65271"
       cy="655.5556"
       rx="192.11845"
       ry="10.91612"
       transform="matrix(0.88222345,0.47083095,-0.43968403,0.89815252,0,0)" />
    <ellipse
       style="opacity:1;fill:#dfcf41;fill-opacity:0.375;stroke:none;stroke-width:10;stroke-miterlimit:4;stroke-dasharray:none;stroke-opacity:1"
       id="path4644-3-5"
       cx="552.2981"
       cy="702.45599"
       rx="140.745"
       ry="8.228199"
       transform="matrix(0.87236752,0.48885061,-0.42256055,0.9063347,0,0)" />
    <ellipse
       style="opacity:1;fill:#6541df;fill-opacity:0.375;stroke:none;stroke-width:10;stroke-miterlimit:4;stroke-dasharray:none;stroke-opacity:1"
       id="path4691"
       cx="496.95581"
       cy="771.28107"
       rx="40.526264"
       ry="15.222546"
       transform="matrix(0.87409832,0.48574904,-0.43793556,0.89900637,0,0)" />
    <path
       style="opacity:1;fill:#000000;fill-opacity:1;stroke:none;stroke-width:10;stroke-miterlimit:4;stroke-dasharray:none;stroke-opacity:1"
       id="path3361-9"
       d="m 586.13208,392.47436 c -5.96222,0.93346 -12.11391,0.96847 -17.94589,3.01363 -0.91915,0.32233 -1.79519,0.82279 -2.6928,1.23417 -6.72652,5.40988 3.90989,-3.21382 9.01342,-6.12991 0.51192,-0.29251 -0.62434,1.21833 -0.809,1.90093 -0.80446,2.97372 -0.38408,6.4785 -0.2545,9.52172 0.83593,10.08383 2.11077,20.10105 3.48251,30.08427 1.83337,11.84725 2.60895,23.86313 3.35923,35.88321 0.84998,13.87676 1.09411,27.79841 1.22053,41.71249 0.1468,13.21151 0.16183,26.42428 0.16406,39.63686 -0.13925,11.22078 0.1337,22.42194 0.51045,33.62846 0.4352,7.36259 0.24792,14.7833 0.79298,22.13311 0.20452,0.85692 0.31834,2.0674 1.02035,2.60173 1.4029,1.0678 4.70158,-0.1966 6.15681,-0.58602 2.54064,-0.83558 5.08943,-1.68358 7.70755,-1.97315 2.03799,-0.17191 4.08163,-0.15904 6.1229,-0.1573 2.45509,0.0341 4.91036,0.0491 7.36554,0.0245 1.4948,-0.0137 2.98956,0.0109 4.48437,0.0157 0,0 -11.81557,11.08796 -11.81557,11.08796 l 0,0 c -1.50394,0.003 -3.00791,0.027 -4.51182,0.007 -2.45854,-0.0355 -4.91737,-0.0342 -7.37596,-0.006 -2.00852,0.0134 -4.02331,0.0204 -6.02059,0.32902 -2.52909,0.49078 -5.01008,1.2646 -7.51368,1.93016 -3.79914,0.75666 -7.43135,1.28048 -8.46621,-4.6526 -0.37085,-7.4615 -0.0734,-14.96838 -0.45737,-22.43446 -0.35712,-11.26915 -0.51442,-22.53505 -0.35963,-33.81429 0.008,-13.23168 0.0409,-26.46375 -0.0326,-39.69517 -0.17237,-13.85343 -0.37673,-27.71611 -1.29174,-41.52847 -0.77468,-11.9435 -1.58342,-23.87784 -3.41076,-35.65037 -1.43195,-9.99397 -2.70274,-20.02836 -3.782,-30.09549 -0.24645,-3.33078 -0.69886,-6.8048 -0.23481,-10.14482 0.12318,-0.88655 0.01,-2.06096 0.56797,-2.60064 8.46647,-8.18445 9.55031,-8.6889 15.66661,-12.32981 6.87264,-2.44952 14.041,-2.77748 21.06716,-4.16423 0,0 -11.72757,11.2174 -11.72757,11.2174 z"
       inkscape:connector-curvature="0" />
    <path
       style="opacity:1;fill:#000000;fill-opacity:1;stroke:none;stroke-width:10;stroke-miterlimit:4;stroke-dasharray:none;stroke-opacity:1"
       id="path3361-1-6"
       d="m 973.54342,389.99692 c 5.96222,0.93347 12.11391,0.96847 17.94589,3.01363 0.91915,0.32233 1.79519,0.82278 2.6928,1.23417 6.72649,5.40988 -3.90989,-3.21382 -9.01342,-6.12991 -0.51192,-0.29251 0.62434,1.21833 0.809,1.90093 0.80446,2.97373 0.38408,6.47849 0.2545,9.52172 -0.83593,10.08383 -2.11077,20.10106 -3.48251,30.08427 -1.83337,11.84725 -2.60894,23.86312 -3.35923,35.8832 -0.84998,13.87677 -1.09411,27.79842 -1.22053,41.7125 -0.1468,13.2115 -0.16183,26.42428 -0.16406,39.63686 0.13925,11.22078 -0.1337,22.42194 -0.51045,33.62846 -0.4352,7.36259 -0.24792,14.7833 -0.79298,22.13311 -0.20452,0.85692 -0.31834,2.0674 -1.02035,2.60172 -1.4029,1.06781 -4.70158,-0.19659 -6.15681,-0.58601 -2.54064,-0.83558 -5.08943,-1.68358 -7.70755,-1.97315 -2.03799,-0.17191 -4.08164,-0.15904 -6.1229,-0.1573 -2.45509,0.0341 -4.91036,0.0491 -7.36554,0.0245 -1.4948,-0.0137 -2.98957,0.0109 -4.48437,0.0157 0,0 11.81557,11.08796 11.81557,11.08796 l 0,0 c 1.50394,0.003 3.0079,0.027 4.51182,0.007 2.45854,-0.0355 4.91737,-0.0342 7.37596,-0.006 2.00852,0.0134 4.02331,0.0204 6.02059,0.32902 2.52909,0.49079 5.01008,1.26461 7.51368,1.93016 3.79914,0.75666 7.43135,1.28048 8.46621,-4.65259 0.37085,-7.46151 0.0735,-14.96838 0.45738,-22.43446 0.35711,-11.26915 0.51441,-22.53506 0.35962,-33.8143 -0.008,-13.23168 -0.0409,-26.46374 0.0326,-39.69517 0.17236,-13.85343 0.37673,-27.71611 1.29173,-41.52847 0.77469,-11.9435 1.58343,-23.87784 3.41077,-35.65037 1.43195,-9.99396 2.70273,-20.02835 3.78199,-30.09549 0.24645,-3.33078 0.69886,-6.80479 0.23481,-10.14481 -0.12317,-0.88655 -0.01,-2.06097 -0.56796,-2.60065 -8.46647,-8.18444 -9.55031,-8.68889 -15.66661,-12.32981 -6.87264,-2.44951 -14.041,-2.77747 -21.06717,-4.16422 0,0 11.72758,11.2174 11.72758,11.2174 z"
       inkscape:connector-curvature="0" />
    <ellipse
       style="opacity:1;fill:#3c3939;fill-opacity:0.74522293;stroke:none;stroke-width:10;stroke-miterlimit:4;stroke-dasharray:none;stroke-opacity:1"
       id="path3355-2"
       cx="621.53699"
       cy="455.41412"
       rx="10.382365"
       ry="8.6579809" />
    <ellipse
       style="opacity:1;fill:#3c3939;fill-opacity:0.74522293;stroke:none;stroke-width:10;stroke-miterlimit:4;stroke-dasharray:none;stroke-opacity:1"
       id="path3355-4-0"
       cx="621.53699"
       cy="495.58762"
       rx="10.382365"
       ry="8.6579809" />
    <ellipse
       style="opacity:1;fill:#3c3939;fill-opacity:0.74522293;stroke:none;stroke-width:10;stroke-miterlimit:4;stroke-dasharray:none;stroke-opacity:1"
       id="path3355-0-6"
       cx="621.53699"
       cy="535.76111"
       rx="10.382365"
       ry="8.6579809" />
    <ellipse
       style="opacity:1;fill:#3c3939;fill-opacity:0.74522293;stroke:none;stroke-width:10;stroke-miterlimit:4;stroke-dasharray:none;stroke-opacity:1"
       id="path3355-05-1"
       cx="621.53699"
       cy="575.93463"
       rx="10.382365"
       ry="8.6579809" />
    <ellipse
       style="opacity:1;fill:#3c3939;fill-opacity:0.74522293;stroke:none;stroke-width:10;stroke-miterlimit:4;stroke-dasharray:none;stroke-opacity:1"
       id="path3355-4-3-8"
       cx="696.29712"
       cy="496.88159"
       rx="10.382365"
       ry="8.6579809" />
    <ellipse
       style="opacity:1;fill:#3c3939;fill-opacity:0.74522293;stroke:none;stroke-width:10;stroke-miterlimit:4;stroke-dasharray:none;stroke-opacity:1"
       id="path3355-0-8-1"
       cx="696.29712"
       cy="537.05511"
       rx="10.382365"
       ry="8.6579809" />
    <ellipse
       style="opacity:1;fill:#3c3939;fill-opacity:0.74522293;stroke:none;stroke-width:10;stroke-miterlimit:4;stroke-dasharray:none;stroke-opacity:1"
       id="path3355-05-9-4"
       cx="696.29712"
       cy="577.22858"
       rx="10.382365"
       ry="8.6579809" />
    <ellipse
       style="opacity:1;fill:#3c3939;fill-opacity:0.74522293;stroke:none;stroke-width:10;stroke-miterlimit:4;stroke-dasharray:none;stroke-opacity:1"
       id="path3355-0-4-5"
       cx="771.05731"
       cy="537.92224"
       rx="10.382365"
       ry="8.6579809" />
    <ellipse
       style="opacity:1;fill:#3c3939;fill-opacity:0.74522293;stroke:none;stroke-width:10;stroke-miterlimit:4;stroke-dasharray:none;stroke-opacity:1"
       id="path3355-05-92-8"
       cx="771.05731"
       cy="578.09576"
       rx="10.382365"
       ry="8.6579809" />
    <ellipse
       style="opacity:1;fill:#3c3939;fill-opacity:0.74522293;stroke:none;stroke-width:10;stroke-miterlimit:4;stroke-dasharray:none;stroke-opacity:1"
       id="path3355-05-3-4"
       cx="845.8175"
       cy="580.6972"
       rx="10.382365"
       ry="8.6579809" />
    <path
       style="opacity:1;fill:#bbbbbb;fill-opacity:0.74522292;stroke:none;stroke-width:10;stroke-miterlimit:4;stroke-dasharray:none;stroke-opacity:1"
       id="path4304-9"
       d="m 617.38954,400.33266 c 9.63946,8.48883 21.06784,14.64937 32.18826,21.04572 33.42113,18.5354 67.88348,35.19531 102.53167,51.40436 6.50057,3.05829 13.02462,6.06931 19.50168,9.17488 8.16569,3.91522 30.10987,14.74338 38.35826,18.84218 13.08641,6.50293 21.61155,10.70909 34.3778,17.55881 5.01937,2.69314 9.97114,5.50496 14.95672,8.25744 19.69846,11.04547 38.74084,23.13755 57.13188,36.14927 5.41783,4.28027 11.1063,8.18241 16.83214,12.04823 1.33153,0.90127 2.79807,1.43158 4.32996,1.88447 0,0 -12.35519,8.16939 -12.35519,8.16939 l 0,0 c -1.58059,-0.60756 -3.09779,-1.2846 -4.4592,-2.30378 -5.45404,-4.02344 -10.67852,-8.30074 -15.77382,-12.75473 -17.23902,-13.85488 -35.66169,-26.17937 -54.77741,-37.43497 -4.86722,-2.81744 -9.6944,-5.70206 -14.60164,-8.45236 -29.76088,-16.67975 -60.66076,-31.35399 -91.50798,-45.98344 -35.01738,-16.44988 -70.09351,-32.78798 -104.67491,-50.10418 -5.74488,-2.92913 -13.70233,-6.91017 -19.51208,-10.12667 -4.6702,-2.58559 -9.04655,-5.50534 -13.51848,-8.38361 -0.56595,-0.36426 -1.15529,-0.69252 -1.73294,-1.03878 0,0 12.70528,-7.95223 12.70528,-7.95223 z"
       inkscape:connector-curvature="0" />
    <path
       style="opacity:1;fill:#bbbbbb;fill-opacity:0.74522292;stroke:none;stroke-width:10;stroke-miterlimit:4;stroke-dasharray:none;stroke-opacity:1"
       id="path4306-3"
       d="m 844.23116,467.85464 c -4.67871,-0.72445 -9.27337,-2.24937 -13.12666,-4.72124 -1.23297,-0.79094 -2.33161,-1.73106 -3.49741,-2.59659 -5.94589,-5.10067 -10.44762,-11.70073 -10.85969,-19.16351 -0.0839,-1.51879 0.20686,-3.03574 0.31029,-4.55361 0.55513,-1.49771 0.91512,-3.06211 1.66539,-4.49313 2.27898,-4.34679 6.3709,-8.30477 11.04401,-10.76697 15.54527,-8.19058 11.46784,-6.68906 22.3289,-9.71429 1.98496,-0.28422 3.95051,-0.70631 5.95488,-0.85266 9.01879,-0.65852 18.44009,1.4461 26.51791,4.88691 2.1144,0.90065 4.08154,2.04526 6.12231,3.06789 6.66838,4.11501 13.58923,9.07153 15.64436,16.36751 1.18921,4.22185 0.46627,5.28834 -0.3696,9.44672 -0.8996,1.55424 -1.53802,3.24744 -2.6988,4.66272 -2.83199,3.45292 -7.09428,6.34778 -11.195,8.50349 -10.27004,5.39888 -15.96516,8.50456 -25.94492,11.7774 -2.39837,0.78655 -4.86519,1.40265 -7.29778,2.10397 -2.16741,0.4297 -4.3348,0.8594 -6.5022,1.2891 0,0 10.4532,-6.96677 10.4532,-6.96677 l 0,0 c 2.06733,-0.40914 4.13466,-0.81829 6.20199,-1.22744 2.36225,-0.6916 4.76222,-1.29134 7.08678,-2.0748 2.56983,-0.86613 4.89451,-2.34854 7.58308,-2.86951 1.38179,-0.26775 -4.69006,2.77586 -3.51766,2.08174 6.28184,-3.71912 10.53716,-5.81706 13.72253,-12.13636 0.99142,-3.90268 1.73389,-4.85741 0.75855,-8.88852 -1.71423,-7.08497 -8.43967,-11.91358 -14.83603,-15.85427 -1.99837,-0.985 -3.92204,-2.09654 -5.99513,-2.95503 -8.0896,-3.35002 -17.39108,-5.11725 -26.33257,-4.21751 -1.97104,0.19833 -3.8953,0.66219 -5.84294,0.99328 -1.86636,0.57875 -6.16622,3.39736 -5.59908,1.73624 0.70211,-2.05644 3.9873,-2.53519 6.19205,-3.47304 1.66852,-0.70974 -3.15685,1.72869 -4.56853,2.78243 -2.44548,1.82543 -5.23585,4.77769 -6.7124,7.29706 -0.77841,1.32816 -1.18449,2.79977 -1.77674,4.19965 -0.14764,1.4394 -0.48261,2.87342 -0.44293,4.31819 0.19785,7.20484 4.71312,13.5174 10.49061,18.33976 1.14778,0.79963 2.22305,1.68634 3.44335,2.39888 3.93509,2.29772 8.7571,3.67883 13.48668,3.70723 0,0 -11.8908,7.56508 -11.8908,7.56508 z"
       inkscape:connector-curvature="0" />
    <text
       xml:space="preserve"
       style="font-style:normal;font-weight:normal;font-size:40px;line-height:125%;font-family:sans-serif;letter-spacing:0px;word-spacing:0px;fill:#000000;fill-opacity:1;stroke:none;stroke-width:1px;stroke-linecap:butt;stroke-linejoin:miter;stroke-opacity:1"
       x="219.88693"
       y="356.61557"
       id="text4765"
       sodipodi:linespacing="125%"><tspan
         sodipodi:role="line"
         x="219.88693"
         y="356.61557"
         id="tspan4769">ResNet</tspan></text>
    <text
       xml:space="preserve"
       style="font-style:normal;font-weight:normal;font-size:40px;line-height:125%;font-family:sans-serif;letter-spacing:0px;word-spacing:0px;fill:#000000;fill-opacity:1;stroke:none;stroke-width:1px;stroke-linecap:butt;stroke-linejoin:miter;stroke-opacity:1"
       x="693.4007"
       y="356.61557"
       id="text4765-2"
       sodipodi:linespacing="125%"><tspan
         sodipodi:role="line"
         x="693.4007"
         y="356.61557"
         id="tspan4769-0">VanillaRNN</tspan></text>
    <text
       xml:space="preserve"
       style="font-style:normal;font-weight:normal;font-size:40px;line-height:125%;font-family:sans-serif;letter-spacing:0px;word-spacing:0px;fill:#000000;fill-opacity:1;stroke:none;stroke-width:1px;stroke-linecap:butt;stroke-linejoin:miter;stroke-opacity:1"
       x="695.5882"
       y="685.83154"
       id="text4765-24"
       sodipodi:linespacing="125%"><tspan
         sodipodi:role="line"
         x="695.5882"
         y="685.83154"
         id="tspan4769-1">LadderNet</tspan></text>
    <text
       xml:space="preserve"
       style="font-style:normal;font-weight:normal;font-size:40px;line-height:125%;font-family:sans-serif;letter-spacing:0px;word-spacing:0px;fill:#000000;fill-opacity:1;stroke:none;stroke-width:1px;stroke-linecap:butt;stroke-linejoin:miter;stroke-opacity:1"
       x="188.32443"
       y="685.83154"
       id="text4765-22"
       sodipodi:linespacing="125%"><tspan
         sodipodi:role="line"
         x="188.32443"
         y="685.83154"
         id="tspan4769-8">FractalNet</tspan></text>
  </g>
</svg>
